name C:\Users\u0101727\Documents\MyRepositories\upper-imu-dc\Results\main_tracking\Case_48\kinematics.mot
datacolumns 10
datarows 37
range 2.80000000 3.16000000
endheader 
time	clav_prot	clav_elev	scapula_abduction	scapula_elevation	scapula_upward_rot	scapula_winging	plane_elv	shoulder_elv	axial_rot	
          2.80000000	        -18.29128336	         -6.44672588	         -6.96179184	         -4.28178082	          8.70154426	          6.68685598	        -23.40484477	         18.45467830	         42.73175379	
          2.81000000	        -18.27614079	         -6.44268045	         -6.91408952	         -4.27296813	          8.68755445	          6.69290858	        -23.45031684	         18.40192720	         42.71662096	
          2.82000000	        -18.30752893	         -6.43352413	         -6.97768995	         -4.26394186	          8.67457079	          6.69854214	        -23.49532673	         18.35092757	         42.70102675	
          2.83000000	        -18.33866184	         -6.42486017	         -7.04095921	         -4.25517066	          8.66117595	          6.70436998	        -23.53937020	         18.29967649	         42.68395949	
          2.84000000	        -18.36919097	         -6.41714598	         -7.10359937	         -4.24677788	          8.64660282	          6.71067192	        -23.58177721	         18.24762125	         42.66417836	
          2.85000000	        -18.39895497	         -6.41059221	         -7.16549263	         -4.23880856	          8.63045688	          6.71758773	        -23.62171799	         18.19480067	         42.64036851	
          2.86000000	        -18.42786049	         -6.40530840	         -7.22659032	         -4.23126969	          8.61247638	          6.72520302	        -23.65830644	         18.14154762	         42.61128138	
          2.87000000	        -18.45583398	         -6.40136756	         -7.28686541	         -4.22415150	          8.59243793	          6.73358540	        -23.69066882	         18.08834021	         42.57584911	
          2.88000000	        -18.48281333	         -6.39884156	         -7.34630144	         -4.21744877	          8.57013576	          6.74280002	        -23.71798383	         18.03572848	         42.53324451	
          2.89000000	        -18.50875068	         -6.39781340	         -7.40489486	         -4.21117056	          8.54538182	          6.75291412	        -23.73950733	         17.98430600	         42.48288065	
          2.90000000	        -18.53361664	         -6.39837693	         -7.46266025	         -4.20534137	          8.51800981	          6.76399664	        -23.75458403	         17.93470643	         42.42435480	
          2.91000000	        -18.55740374	         -6.40063198	         -7.51963414	         -4.19999926	          8.48788133	          6.77611556	        -23.76264577	         17.88761085	         42.35734964	
          2.92000000	        -18.58012827	         -6.40467817	         -7.57587532	         -4.19519331	          8.45489372	          6.78933415	        -23.76319743	         17.84375852	         42.28150600	
          2.93000000	        -18.60182889	         -6.41060798	         -7.63146007	         -4.19098031	          8.41898762	          6.80370648	        -23.75579428	         17.80395805	         42.19627974	
          2.94000000	        -18.62256129	         -6.41849969	         -7.68647135	         -4.18742053	          8.38015242	          6.81927280	        -23.74001636	         17.76909746	         42.10079856	
          2.95000000	        -18.64238946	         -6.42841030	         -7.74098339	         -4.18457278	          8.33842991	          6.83605474	        -23.71544766	         17.74014995	         41.99374179	
          2.96000000	        -18.66137637	         -6.44036825	         -7.79504509	         -4.18248930	          8.29391795	          6.85405047	        -23.68166679	         17.71817193	         41.87327354	
          2.97000000	        -18.67957709	         -6.45436592	         -7.84866662	         -4.18121120	          8.24677641	          6.87322953	        -23.63825358	         17.70428974	         41.73705606	
          2.98000000	        -18.69703646	         -6.47035171	         -7.90181279	         -4.18076464	          8.19723571	          6.89352785	        -23.58481147	         17.69967352	         41.58235861	
          2.99000000	        -18.71379188	         -6.48822230	         -7.95440418	         -4.18115790	          8.14560724	          6.91484305	        -23.52100264	         17.70549955	         41.40625820	
          3.00000000	        -18.72988028	         -6.50781605	         -8.00632511	         -4.18237976	          8.09229459	          6.93703067	        -23.44659098	         17.72290528	         41.20590565	
          3.01000000	        -18.74534725	         -6.52890837	         -8.05743551	         -4.18439932	          8.03780370	          6.95990167	        -23.36148691	         17.75294394	         40.97880971	
          3.02000000	        -18.76025585	         -6.55120981	         -8.10758315	         -4.18716700	          7.98274981	          6.98322149	        -23.26578827	         17.79654586	         40.72308504	
          3.03000000	        -18.77469243	         -6.57436779	         -8.15661333	         -4.19061652	          7.92785856	          7.00671126	        -23.15981213	         17.85449065	         40.43762291	
          3.04000000	        -18.78876850	         -6.59797250	         -8.20437424	         -4.19466785	          7.87395954	          7.03005156	        -23.04411412	         17.92739230	         40.12216512	
          3.05000000	        -18.80261857	         -6.62156702	         -8.25071877	         -4.19923107	          7.82197227	          7.05288879	        -22.91949399	         18.01569720	         39.77727981	
          3.06000000	        -18.81639557	         -6.64466150	         -8.29550377	         -4.20421151	          7.77288614	          7.07484400	        -22.78698684	         18.11969378	         39.40424987	
          3.07000000	        -18.83026456	         -6.66675091	         -8.33858823	         -4.20951635	          7.72773591	          7.09552374	        -22.64784140	         18.23953174	         39.00489228	
          3.08000000	        -18.84439540	         -6.68733501	         -8.37983044	         -4.21506192	          7.68757405	          7.11453228	        -22.50348788	         18.37524805	         38.58133310	
          3.09000000	        -18.85895428	         -6.70593926	         -8.41908362	         -4.22078125	          7.65344143	          7.13148436	        -22.35549919	         18.52679652	         38.13576848	
          3.10000000	        -18.87409387	         -6.72213499	         -8.45618934	         -4.22663083	          7.62633800	          7.14601760	        -22.20554875	         18.69407684	         37.67024634	
          3.11000000	        -18.88994258	         -6.73555757	         -8.49096865	         -4.23259639	          7.60719539	          7.15780352	        -22.05536698	         18.87695917	         37.18650131	
          3.12000000	        -18.90659471	         -6.74592069	         -8.52321314	         -4.23869685	          7.59685389	          7.16655642	        -21.90669692	         19.07530148	         36.68586623	
          3.13000000	        -18.92410395	         -6.75302583	         -8.55267912	         -4.24498675	          7.59604683	          7.17203933	        -21.76124913	         19.28895743	         36.16926918	
          3.14000000	        -18.94248190	         -6.75676651	         -8.57908692	         -4.25155744	          7.60539389	          7.17406701	        -21.62065691	         19.51777380	         35.63730979	
          3.15000000	        -18.96170200	         -6.75712767	         -8.60212652	         -4.25853713	          7.62540254	          7.17250597	        -21.48643270	         19.76157745	         35.09039324	
          3.16000000	        -18.98170891	         -6.75418124	         -8.62146983	         -4.26609014	          7.65647670	          7.16727255	        -21.35992750	         20.02015349	         34.52889193	
